<svg width="512" height="512" viewBox="0 0 512 512" fill="none" xmlns="http://www.w3.org/2000/svg"><rect width="512" height="512" rx="112" fill="#0F1115"/><path d="M151 336C205 301 248 254 278 193C291 166 322 153 349 166C377 179 389 211 376 238C338 319 279 381 206 425C180 440 146 431 131 405C116 379 125 351 151 336Z" fill="#D4A84E"/><path d="M149 191C175 113 268 79 338 124C356 136 361 160 349 178C337 196 313 201 295 189C265 170 225 184 214 217C208 237 187 249 167 243C147 237 137 211 149 191Z" fill="#F4D28A"/><circle cx="350" cy="172" r="22" fill="#FFFFFF"/></svg>
